<svg width="20" height="17" viewBox="0 0 20 17" fill="none" xmlns="http://www.w3.org/2000/svg">
<path d="M14.5862 0H5.41381C2.42858 0 0 2.0643 0 4.60174V12.3984C0 14.9357 2.42858 17 5.41381 17H14.5863C17.5714 17 20 14.9357 20 12.3984V4.60174C20 2.0643 17.5714 0 14.5862 0V0ZM9.99998 13.1483C6.98454 13.1483 4.53139 11.0631 4.53139 8.49998C4.53139 5.93686 6.98454 3.85168 9.99998 3.85168C13.0154 3.85168 15.4686 5.93686 15.4686 8.49998C15.4686 11.0631 13.0154 13.1483 9.99998 13.1483ZM15.5993 4.9479C14.7082 4.9479 13.9834 4.33183 13.9834 3.57439C13.9834 2.81694 14.7082 2.20074 15.5993 2.20074C16.4904 2.20074 17.2154 2.81694 17.2154 3.57439C17.2154 4.33183 16.4904 4.9479 15.5993 4.9479Z" fill="#898989"/>
<path d="M9.99996 4.84827C7.63119 4.84827 5.70386 6.48637 5.70386 8.49995C5.70386 10.5134 7.63119 12.1516 9.99996 12.1516C12.3689 12.1516 14.2961 10.5134 14.2961 8.49995C14.2961 6.48637 12.3689 4.84827 9.99996 4.84827Z" fill="#898989"/>
<path d="M15.5993 3.19745C15.3549 3.19745 15.1559 3.36658 15.1559 3.57436C15.1559 3.78213 15.3549 3.95126 15.5993 3.95126C15.8439 3.95126 16.0429 3.78226 16.0429 3.57436C16.0429 3.36645 15.8439 3.19745 15.5993 3.19745Z" fill="#898989"/>
</svg>
