<svg width="302" height="72" viewBox="0 0 302 72" fill="none" xmlns="http://www.w3.org/2000/svg">
<path d="M171.352 58.8008C171.352 60.7305 170.91 62.2852 170.027 63.4648C169.145 64.6445 167.949 65.2344 166.441 65.2344C164.902 65.2344 163.691 64.7461 162.809 63.7695V69.875H160.641V52.3203H162.621L162.727 53.7266C163.609 52.6328 164.836 52.0859 166.406 52.0859C167.93 52.0859 169.133 52.6602 170.016 53.8086C170.906 54.957 171.352 56.5547 171.352 58.6016V58.8008ZM169.184 58.5547C169.184 57.125 168.879 55.9961 168.27 55.168C167.66 54.3398 166.824 53.9258 165.762 53.9258C164.449 53.9258 163.465 54.5078 162.809 55.6719V61.7305C163.457 62.8867 164.449 63.4648 165.785 63.4648C166.824 63.4648 167.648 63.0547 168.258 62.2344C168.875 61.4062 169.184 60.1797 169.184 58.5547ZM176.285 53.8555C177.246 52.6758 178.496 52.0859 180.035 52.0859C182.715 52.0859 184.066 53.5977 184.09 56.6211V65H181.922V56.6094C181.914 55.6953 181.703 55.0195 181.289 54.582C180.883 54.1445 180.246 53.9258 179.379 53.9258C178.676 53.9258 178.059 54.1133 177.527 54.4883C176.996 54.8633 176.582 55.3555 176.285 55.9648V65H174.117V47H176.285V53.8555ZM186.762 58.543C186.762 57.3008 187.004 56.1836 187.488 55.1914C187.98 54.1992 188.66 53.4336 189.527 52.8945C190.402 52.3555 191.398 52.0859 192.516 52.0859C194.242 52.0859 195.637 52.6836 196.699 53.8789C197.77 55.0742 198.305 56.6641 198.305 58.6484V58.8008C198.305 60.0352 198.066 61.1445 197.59 62.1289C197.121 63.1055 196.445 63.8672 195.562 64.4141C194.688 64.9609 193.68 65.2344 192.539 65.2344C190.82 65.2344 189.426 64.6367 188.355 63.4414C187.293 62.2461 186.762 60.6641 186.762 58.6953V58.543ZM188.941 58.8008C188.941 60.207 189.266 61.3359 189.914 62.1875C190.57 63.0391 191.445 63.4648 192.539 63.4648C193.641 63.4648 194.516 63.0352 195.164 62.1758C195.812 61.3086 196.137 60.0977 196.137 58.543C196.137 57.1523 195.805 56.0273 195.141 55.168C194.484 54.3008 193.609 53.8672 192.516 53.8672C191.445 53.8672 190.582 54.293 189.926 55.1445C189.27 55.9961 188.941 57.2148 188.941 58.8008ZM203.965 49.25V52.3203H206.332V53.9961H203.965V61.8594C203.965 62.3672 204.07 62.75 204.281 63.0078C204.492 63.2578 204.852 63.3828 205.359 63.3828C205.609 63.3828 205.953 63.3359 206.391 63.2422V65C205.82 65.1562 205.266 65.2344 204.727 65.2344C203.758 65.2344 203.027 64.9414 202.535 64.3555C202.043 63.7695 201.797 62.9375 201.797 61.8594V53.9961H199.488V52.3203H201.797V49.25H203.965ZM208.066 58.543C208.066 57.3008 208.309 56.1836 208.793 55.1914C209.285 54.1992 209.965 53.4336 210.832 52.8945C211.707 52.3555 212.703 52.0859 213.82 52.0859C215.547 52.0859 216.941 52.6836 218.004 53.8789C219.074 55.0742 219.609 56.6641 219.609 58.6484V58.8008C219.609 60.0352 219.371 61.1445 218.895 62.1289C218.426 63.1055 217.75 63.8672 216.867 64.4141C215.992 64.9609 214.984 65.2344 213.844 65.2344C212.125 65.2344 210.73 64.6367 209.66 63.4414C208.598 62.2461 208.066 60.6641 208.066 58.6953V58.543ZM210.246 58.8008C210.246 60.207 210.57 61.3359 211.219 62.1875C211.875 63.0391 212.75 63.4648 213.844 63.4648C214.945 63.4648 215.82 63.0352 216.469 62.1758C217.117 61.3086 217.441 60.0977 217.441 58.543C217.441 57.1523 217.109 56.0273 216.445 55.168C215.789 54.3008 214.914 53.8672 213.82 53.8672C212.75 53.8672 211.887 54.293 211.23 55.1445C210.574 55.9961 210.246 57.2148 210.246 58.8008ZM228.457 54.2656C228.129 54.2109 227.773 54.1836 227.391 54.1836C225.969 54.1836 225.004 54.7891 224.496 56V65H222.328V52.3203H224.438L224.473 53.7852C225.184 52.6523 226.191 52.0859 227.496 52.0859C227.918 52.0859 228.238 52.1406 228.457 52.25V54.2656ZM229.711 58.5547C229.711 56.5781 230.168 55.0078 231.082 53.8438C231.996 52.6719 233.207 52.0859 234.715 52.0859C236.262 52.0859 237.469 52.6328 238.336 53.7266L238.441 52.3203H240.422V64.6953C240.422 66.3359 239.934 67.6289 238.957 68.5742C237.988 69.5195 236.684 69.9922 235.043 69.9922C234.129 69.9922 233.234 69.7969 232.359 69.4062C231.484 69.0156 230.816 68.4805 230.355 67.8008L231.48 66.5C232.41 67.6484 233.547 68.2227 234.891 68.2227C235.945 68.2227 236.766 67.9258 237.352 67.332C237.945 66.7383 238.242 65.9023 238.242 64.8242V63.7344C237.375 64.7344 236.191 65.2344 234.691 65.2344C233.207 65.2344 232.004 64.6367 231.082 63.4414C230.168 62.2461 229.711 60.6172 229.711 58.5547ZM231.891 58.8008C231.891 60.2305 232.184 61.3555 232.77 62.1758C233.355 62.9883 234.176 63.3945 235.23 63.3945C236.598 63.3945 237.602 62.7734 238.242 61.5312V55.7422C237.578 54.5312 236.582 53.9258 235.254 53.9258C234.199 53.9258 233.375 54.3359 232.781 55.1562C232.188 55.9766 231.891 57.1914 231.891 58.8008ZM251.531 65C251.406 64.75 251.305 64.3047 251.227 63.6641C250.219 64.7109 249.016 65.2344 247.617 65.2344C246.367 65.2344 245.34 64.8828 244.535 64.1797C243.738 63.4688 243.34 62.5703 243.34 61.4844C243.34 60.1641 243.84 59.1406 244.84 58.4141C245.848 57.6797 247.262 57.3125 249.082 57.3125H251.191V56.3164C251.191 55.5586 250.965 54.957 250.512 54.5117C250.059 54.0586 249.391 53.832 248.508 53.832C247.734 53.832 247.086 54.0273 246.562 54.418C246.039 54.8086 245.777 55.2812 245.777 55.8359H243.598C243.598 55.2031 243.82 54.5938 244.266 54.0078C244.719 53.4141 245.328 52.9453 246.094 52.6016C246.867 52.2578 247.715 52.0859 248.637 52.0859C250.098 52.0859 251.242 52.4531 252.07 53.1875C252.898 53.9141 253.328 54.918 253.359 56.1992V62.0352C253.359 63.1992 253.508 64.125 253.805 64.8125V65H251.531ZM247.934 63.3477C248.613 63.3477 249.258 63.1719 249.867 62.8203C250.477 62.4688 250.918 62.0117 251.191 61.4492V58.8477H249.492C246.836 58.8477 245.508 59.625 245.508 61.1797C245.508 61.8594 245.734 62.3906 246.188 62.7734C246.641 63.1562 247.223 63.3477 247.934 63.3477ZM267.469 58.8008C267.469 60.7305 267.027 62.2852 266.145 63.4648C265.262 64.6445 264.066 65.2344 262.559 65.2344C261.02 65.2344 259.809 64.7461 258.926 63.7695V69.875H256.758V52.3203H258.738L258.844 53.7266C259.727 52.6328 260.953 52.0859 262.523 52.0859C264.047 52.0859 265.25 52.6602 266.133 53.8086C267.023 54.957 267.469 56.5547 267.469 58.6016V58.8008ZM265.301 58.5547C265.301 57.125 264.996 55.9961 264.387 55.168C263.777 54.3398 262.941 53.9258 261.879 53.9258C260.566 53.9258 259.582 54.5078 258.926 55.6719V61.7305C259.574 62.8867 260.566 63.4648 261.902 63.4648C262.941 63.4648 263.766 63.0547 264.375 62.2344C264.992 61.4062 265.301 60.1797 265.301 58.5547ZM272.402 53.8555C273.363 52.6758 274.613 52.0859 276.152 52.0859C278.832 52.0859 280.184 53.5977 280.207 56.6211V65H278.039V56.6094C278.031 55.6953 277.82 55.0195 277.406 54.582C277 54.1445 276.363 53.9258 275.496 53.9258C274.793 53.9258 274.176 54.1133 273.645 54.4883C273.113 54.8633 272.699 55.3555 272.402 55.9648V65H270.234V47H272.402V53.8555ZM287.602 61.8242L290.555 52.3203H292.875L287.777 66.957C286.988 69.0664 285.734 70.1211 284.016 70.1211L283.605 70.0859L282.797 69.9336V68.1758L283.383 68.2227C284.117 68.2227 284.688 68.0742 285.094 67.7773C285.508 67.4805 285.848 66.9375 286.113 66.1484L286.594 64.8594L282.07 52.3203H284.438L287.602 61.8242Z" fill="#706A6A"/>
<g filter="url(#filter0_d)">
<path d="M21.0508 25.8281H9.43164L6.79492 33H4.52734L14.2129 7.40625H16.2695L25.9551 33H23.7051L21.0508 25.8281ZM10.0996 23.9824H20.3652L15.2324 10.043L10.0996 23.9824ZM31.9141 31.1719H44.5527V33H29.7344V7.40625H31.9141V31.1719ZM62.8516 20.7305H50.8809V31.1719H64.6445V33H48.7188V7.40625H64.5566V9.25195H50.8809V18.9023H62.8516V20.7305ZM77.002 18.2344L84.209 7.40625H86.793L78.3203 20.0273L87.0566 33H84.4551L77.002 21.8203L69.5137 33H66.9473L75.7012 20.0273L67.2109 7.40625H69.7949L77.002 18.2344ZM114.496 26.707C114.496 25.2891 113.998 24.1699 113.002 23.3496C112.006 22.5176 110.184 21.7324 107.535 20.9941C104.887 20.2441 102.953 19.4297 101.734 18.5508C100 17.3086 99.1328 15.6797 99.1328 13.6641C99.1328 11.707 99.9355 10.1191 101.541 8.90039C103.158 7.66992 105.221 7.05469 107.729 7.05469C109.428 7.05469 110.945 7.38281 112.281 8.03906C113.629 8.69531 114.672 9.60937 115.41 10.7812C116.148 11.9531 116.518 13.2598 116.518 14.7012H114.338C114.338 12.9551 113.74 11.5547 112.545 10.5C111.35 9.43359 109.744 8.90039 107.729 8.90039C105.771 8.90039 104.213 9.33984 103.053 10.2188C101.893 11.0859 101.312 12.2227 101.312 13.6289C101.312 14.9297 101.834 15.9902 102.877 16.8105C103.92 17.6309 105.59 18.3574 107.887 18.9902C110.184 19.6113 111.924 20.2617 113.107 20.9414C114.291 21.6094 115.182 22.4121 115.779 23.3496C116.377 24.2871 116.676 25.3945 116.676 26.6719C116.676 28.6875 115.867 30.3047 114.25 31.5234C112.645 32.7422 110.523 33.3516 107.887 33.3516C106.082 33.3516 104.424 33.0293 102.912 32.3848C101.412 31.7402 100.27 30.8379 99.4844 29.6777C98.7109 28.5176 98.3242 27.1875 98.3242 25.6875H100.486C100.486 27.4922 101.16 28.916 102.508 29.959C103.855 31.002 105.648 31.5234 107.887 31.5234C109.879 31.5234 111.479 31.084 112.686 30.2051C113.893 29.3262 114.496 28.1602 114.496 26.707ZM135.168 25.8281H123.549L120.912 33H118.645L128.33 7.40625H130.387L140.072 33H137.822L135.168 25.8281ZM124.217 23.9824H134.482L129.35 10.043L124.217 23.9824ZM146.717 7.40625L156.156 29.9941L165.631 7.40625H168.514V33H166.352V21.8555L166.527 10.4297L157 33H155.33L145.838 10.5176L146.014 21.7852V33H143.852V7.40625H146.717ZM189.484 26.707C189.484 25.2891 188.986 24.1699 187.99 23.3496C186.994 22.5176 185.172 21.7324 182.523 20.9941C179.875 20.2441 177.941 19.4297 176.723 18.5508C174.988 17.3086 174.121 15.6797 174.121 13.6641C174.121 11.707 174.924 10.1191 176.529 8.90039C178.146 7.66992 180.209 7.05469 182.717 7.05469C184.416 7.05469 185.934 7.38281 187.27 8.03906C188.617 8.69531 189.66 9.60937 190.398 10.7812C191.137 11.9531 191.506 13.2598 191.506 14.7012H189.326C189.326 12.9551 188.729 11.5547 187.533 10.5C186.338 9.43359 184.732 8.90039 182.717 8.90039C180.76 8.90039 179.201 9.33984 178.041 10.2188C176.881 11.0859 176.301 12.2227 176.301 13.6289C176.301 14.9297 176.822 15.9902 177.865 16.8105C178.908 17.6309 180.578 18.3574 182.875 18.9902C185.172 19.6113 186.912 20.2617 188.096 20.9414C189.279 21.6094 190.17 22.4121 190.768 23.3496C191.365 24.2871 191.664 25.3945 191.664 26.6719C191.664 28.6875 190.855 30.3047 189.238 31.5234C187.633 32.7422 185.512 33.3516 182.875 33.3516C181.07 33.3516 179.412 33.0293 177.9 32.3848C176.4 31.7402 175.258 30.8379 174.473 29.6777C173.699 28.5176 173.312 27.1875 173.312 25.6875H175.475C175.475 27.4922 176.148 28.916 177.496 29.959C178.844 31.002 180.637 31.5234 182.875 31.5234C184.867 31.5234 186.467 31.084 187.674 30.2051C188.881 29.3262 189.484 28.1602 189.484 26.707ZM215.254 21.5918C215.254 23.9473 214.844 26.0156 214.023 27.7969C213.215 29.5781 212.055 30.9492 210.543 31.9102C209.031 32.8711 207.285 33.3516 205.305 33.3516C202.316 33.3516 199.902 32.2852 198.062 30.1523C196.223 28.0078 195.303 25.1191 195.303 21.4863V18.8496C195.303 16.5176 195.713 14.4551 196.533 12.6621C197.365 10.8574 198.537 9.47461 200.049 8.51367C201.561 7.54102 203.301 7.05469 205.27 7.05469C207.238 7.05469 208.973 7.5293 210.473 8.47852C211.984 9.42773 213.15 10.7695 213.971 12.5039C214.791 14.2383 215.219 16.248 215.254 18.5332V21.5918ZM213.092 18.8145C213.092 15.7324 212.395 13.3184 211 11.5723C209.605 9.82617 207.695 8.95312 205.27 8.95312C202.891 8.95312 200.992 9.83203 199.574 11.5898C198.168 13.3359 197.465 15.7793 197.465 18.9199V21.5918C197.465 24.627 198.168 27.0352 199.574 28.8164C200.98 30.5859 202.891 31.4707 205.305 31.4707C207.754 31.4707 209.664 30.5977 211.035 28.8516C212.406 27.0938 213.092 24.6504 213.092 21.5215V18.8145ZM239.758 33H237.596L222.883 11.0977V33H220.703V7.40625H222.883L237.613 29.3262V7.40625H239.758V33ZM265.176 21.5918C265.176 23.9473 264.766 26.0156 263.945 27.7969C263.137 29.5781 261.977 30.9492 260.465 31.9102C258.953 32.8711 257.207 33.3516 255.227 33.3516C252.238 33.3516 249.824 32.2852 247.984 30.1523C246.145 28.0078 245.225 25.1191 245.225 21.4863V18.8496C245.225 16.5176 245.635 14.4551 246.455 12.6621C247.287 10.8574 248.459 9.47461 249.971 8.51367C251.482 7.54102 253.223 7.05469 255.191 7.05469C257.16 7.05469 258.895 7.5293 260.395 8.47852C261.906 9.42773 263.072 10.7695 263.893 12.5039C264.713 14.2383 265.141 16.248 265.176 18.5332V21.5918ZM263.014 18.8145C263.014 15.7324 262.316 13.3184 260.922 11.5723C259.527 9.82617 257.617 8.95312 255.191 8.95312C252.812 8.95312 250.914 9.83203 249.496 11.5898C248.09 13.3359 247.387 15.7793 247.387 18.9199V21.5918C247.387 24.627 248.09 27.0352 249.496 28.8164C250.902 30.5859 252.812 31.4707 255.227 31.4707C257.676 31.4707 259.586 30.5977 260.957 28.8516C262.328 27.0938 263.014 24.6504 263.014 21.5215V18.8145ZM277.955 29.8359L278.096 30.3809L278.254 29.8359L286.305 7.40625H288.678L279.15 33H277.076L267.549 7.40625H269.904L277.955 29.8359Z" fill="#333333"/>
</g>
<defs>
<filter id="filter0_d" x="0.527344" y="7.05469" width="292.15" height="34.2969" filterUnits="userSpaceOnUse" color-interpolation-filters="sRGB">
<feFlood flood-opacity="0" result="BackgroundImageFix"/>
<feColorMatrix in="SourceAlpha" type="matrix" values="0 0 0 0 0 0 0 0 0 0 0 0 0 0 0 0 0 0 127 0"/>
<feOffset dy="4"/>
<feGaussianBlur stdDeviation="2"/>
<feColorMatrix type="matrix" values="0 0 0 0 0 0 0 0 0 0 0 0 0 0 0 0 0 0 0.25 0"/>
<feBlend mode="normal" in2="BackgroundImageFix" result="effect1_dropShadow"/>
<feBlend mode="normal" in="SourceGraphic" in2="effect1_dropShadow" result="shape"/>
</filter>
</defs>
</svg>
