<svg width="20" height="18" viewBox="0 0 20 18" fill="none" xmlns="http://www.w3.org/2000/svg">
<g clip-path="url(#clip0)">
<path d="M1.91961 6.28807C2.1726 6.44875 2.93523 6.92595 4.20753 7.71945C5.47986 8.51294 6.45456 9.12391 7.13165 9.55239C7.20605 9.59936 7.36409 9.70146 7.60587 9.85883C7.84769 10.0163 8.04861 10.1436 8.2085 10.2406C8.3685 10.3377 8.56192 10.4465 8.78896 10.567C9.01592 10.6874 9.22987 10.778 9.43076 10.8379C9.63168 10.8983 9.81768 10.9283 9.98878 10.9283H10H10.0113C10.1824 10.9283 10.3684 10.8983 10.5694 10.8379C10.7702 10.778 10.9843 10.6873 11.2111 10.567C11.438 10.4464 11.6314 10.3376 11.7914 10.2406C11.9514 10.1436 12.1522 10.0163 12.3941 9.85883C12.6358 9.70132 12.794 9.59936 12.8684 9.55239C13.5528 9.12391 15.2941 8.0357 18.0916 6.28786C18.6347 5.94649 19.0885 5.53458 19.453 5.05241C19.8178 4.57045 20 4.06485 20 3.53589C20 3.09387 19.8232 2.71548 19.4697 2.40078C19.1163 2.08601 18.6977 1.92871 18.2142 1.92871H1.78564C1.21276 1.92871 0.771892 2.10279 0.463112 2.45095C0.154371 2.79918 0 3.23445 0 3.75673C0 4.1786 0.204681 4.63575 0.613847 5.12791C1.02297 5.62011 1.45837 6.00686 1.91961 6.28807Z" fill="#898989"/>
<path d="M18.8838 7.36268C16.4435 8.84915 14.5906 10.0044 13.3259 10.8281C12.9018 11.1093 12.5578 11.3287 12.2936 11.486C12.0294 11.6434 11.678 11.8041 11.2389 11.9681C10.8 12.1323 10.3909 12.2142 10.0114 12.2142H10H9.9888C9.60935 12.2142 9.20007 12.1323 8.76115 11.9681C8.32224 11.8041 7.97061 11.6434 7.70648 11.486C7.44242 11.3287 7.09826 11.1093 6.6742 10.8281C5.66968 10.1652 3.82075 9.00993 1.12735 7.36268C0.70313 7.10838 0.327387 6.8169 0 6.48883V14.4641C0 14.9063 0.174776 15.2845 0.524523 15.5992C0.874192 15.914 1.29465 16.0714 1.78575 16.0714H18.2144C18.7054 16.0714 19.1258 15.914 19.4755 15.5992C19.8253 15.2844 20 14.9063 20 14.4641V6.48883C19.68 6.81011 19.3081 7.10159 18.8838 7.36268Z" fill="#898989"/>
</g>
<defs>
<clipPath id="clip0">
<rect width="20" height="18" fill="white"/>
</clipPath>
</defs>
</svg>
