<svg width="20" height="24" viewBox="0 0 20 24" fill="none" xmlns="http://www.w3.org/2000/svg">
<g clip-path="url(#clip0)">
<path d="M19.5512 18.3829L16.4626 14.7902C15.8474 14.0775 14.8286 14.0992 14.1919 14.8399L12.6358 16.6493C12.5375 16.5863 12.4358 16.5205 12.3288 16.4506C11.3461 15.8174 10.0012 14.9494 8.58592 13.3022C7.16646 11.6515 6.4195 10.0849 5.87335 8.9413C5.81572 8.82015 5.76051 8.70333 5.70598 8.5924L6.75034 7.37956L7.26379 6.78166C7.90141 6.03988 7.91899 4.85531 7.30522 4.1406L4.21654 0.547522C3.60276 -0.166189 2.58351 -0.144537 1.94589 0.597241L1.07539 1.61548L1.09918 1.64295C0.807291 2.07612 0.56338 2.57572 0.381868 3.11447C0.214549 3.6273 0.110376 4.11667 0.0627433 4.60705C-0.345098 8.53941 1.19996 12.1333 5.39306 17.0101C11.1892 23.7508 15.8601 23.2416 16.0616 23.2167C16.5005 23.1557 16.9211 23.0337 17.3485 22.8407C17.8077 22.632 18.237 22.3488 18.6092 22.01L18.6282 22.0297L19.5101 21.0253C20.1464 20.2837 20.1647 19.0987 19.5512 18.3829Z" fill="#898989"/>
</g>
<defs>
<clipPath id="clip0">
<rect width="20" height="23.2609" fill="white"/>
</clipPath>
</defs>
</svg>
